<?xml version="1.0" encoding="UTF-8" standalone="no"?>
<!DOCTYPE svg PUBLIC "-//W3C//DTD SVG 1.1//EN" "http://www.w3.org/Graphics/SVG/1.1/DTD/svg11.dtd">
<svg width="100%" height="100%" viewBox="2000 3300 10600 3800" version="1.1" xmlns="http://www.w3.org/2000/svg" xmlns:xlink="http://www.w3.org/1999/xlink" xml:space="preserve" xmlns:serif="http://www.serif.com/" style="fill-rule:evenodd;clip-rule:evenodd;stroke-linejoin:round;stroke-miterlimit:2;">
    <g transform="matrix(4.16667,0,0,4.16667,0,0)">
        <g transform="matrix(4.16667,0,0,4.16667,0,0)">
            <g id="Layer-1" serif:id="Layer 1">
                <g transform="matrix(-0.973177,-0.230057,-0.230057,0.973177,186.462,237.717)">
                    <path d="M-5.103,-43.768C-17.815,-46.773 -28.118,-39.277 -28.119,-27.028C-28.119,-14.777 -17.814,-2.41 -5.103,0.595C7.608,3.6 17.912,-3.896 17.913,-16.146C17.913,-28.396 7.608,-40.763 -5.103,-43.768" style="fill:rgb(0,0,1);"/>
                </g>
                <g transform="matrix(1,0,0,1,231.983,368.936)">
                    <path d="M0,-137.395L-8.502,-114.921C-25.799,-114.925 -43.095,-114.928 -60.395,-114.928C-65.442,-114.928 -69.515,-112.683 -71.416,-108.062L-109.271,-6.737C-110.003,-4.823 -110.021,-3.181 -109.604,-1.705C-108.545,1.124 -105.854,3.119 -102.334,3.119L-78.474,3.119C-73.213,2.848 -69.923,0.325 -68.154,-3.94L-38.883,-85.238L-19.732,-85.238L-33.748,-48.188C-38.965,-34.395 -42.728,-25.017 -42.187,-10.691C-38.249,5.751 -14.944,7.117 1.671,5.839C8.208,5.337 14.316,4.755 17.093,-2.422L20.573,-11.713C23.949,-20.719 20.858,-23.955 10.936,-23.839C-1.391,-24.344 0.862,-36.028 4.115,-44.407L19.981,-85.238L38.497,-85.238C44.642,-85.238 48.17,-87.683 50.262,-93.109L54.531,-104.164C56.913,-110.323 53.835,-114.91 46.853,-114.913L31.512,-114.913L38.85,-133.797C41.096,-139.567 38.113,-144.512 31.55,-144.512L10.844,-144.504C5.907,-144.5 1.696,-141.892 0,-137.395" style="fill:rgb(0,0,1);"/>
                </g>
                <g transform="matrix(1,0,0,1,396.504,251.182)">
                    <path d="M0,120.872L22.206,120.872C27.539,120.872 31.754,118.654 33.584,113.644L52.146,59.785C61.551,43.904 75.909,33.721 93.44,33.999C97.993,34.058 102.807,31.518 104.337,27.18C106.414,21.42 108.492,15.658 110.568,9.897C112.388,4.848 108.416,0 102.479,0.427C89.898,1.347 77.842,7.405 66.317,18.667L68.242,13.079C70.247,7.267 66.286,3.442 60.163,3.442L40.568,3.442C35.637,3.442 31.484,6.152 29.802,10.585L-7.858,110.028C-10.264,116.38 -7.094,120.872 0,120.872" style="fill:rgb(0,0,1);"/>
                </g>
                <g transform="matrix(1,0,0,1,302.7,304.574)">
                    <path d="M0,19.04L83.963,19.04C84.189,19.04 84.415,19.046 84.643,19.04C89.192,18.922 93.48,16.061 95.03,11.935C100.553,-2.672 102.538,-18.339 96.143,-31.159C88.271,-46.943 69.033,-54.551 42.011,-52.504C16.925,-50.604 -5.927,-38.999 -23.689,-15.439C-39.216,5.76 -46.311,37.383 -29.852,55.216C-15.5,70.766 9.998,73.591 33.583,69.344C45.792,67.145 57.139,62.605 69.557,55.001C75.031,51.641 75.473,45.198 71.642,41.784C68.433,38.941 65.185,36.135 61.703,33.562C58.318,31.062 54.554,30.941 50.395,33.306C50.354,33.328 50.315,33.357 50.275,33.383C36.947,41.931 20.994,44.745 8.353,37.447C1.845,32.859 -1.225,26.843 0,19.04M7.752,-4.334L63.294,-4.334C65.228,-18.869 57.307,-25.517 45.256,-25.839C29.18,-26.266 15.564,-18.452 7.752,-4.334" style="fill:rgb(0,0,1);"/>
                </g>
                <g transform="matrix(1,0,0,1,627.054,404.847)">
                    <path d="M0,-203.916C-14.019,-206.758 -28.724,-208.304 -44.542,-207.757C-58.492,-207.606 -72.165,-205.67 -85.566,-201.996C-111.338,-195.957 -139.816,-172.018 -109.61,-158.701C-95.382,-152.431 -52.054,-154.794 -20.193,-141.273C-63.012,-123.113 -108.726,-107.485 -147.771,-82.325C-183.683,-58.704 -204.046,-14.97 -158.862,-2.988C-118.261,4.388 -43.039,-26.061 -10.591,-54.844C21.9,-81.353 44.633,-115.527 20.866,-146.819C20.824,-146.876 20.843,-146.963 20.831,-147.035C20.831,-147.035 85.817,-168.552 88.069,-170.038C90.367,-170.796 92.247,-172.708 92.652,-174.948C93.178,-177.854 91.024,-180.208 87.842,-180.208C86.595,-180.208 85.375,-179.848 84.321,-179.233L11.7,-154.718C-13.282,-171.036 -49.023,-175.164 -82.178,-179.151C-61.943,-189.869 -35.611,-191.602 -6.17,-187.115C-5.246,-186.802 -6.289,-186.63 -3.126,-186.63C0.037,-186.63 7.044,-190.5 7.908,-195.273C8.772,-200.046 5.232,-203.916 0.004,-203.916L0,-203.916ZM-8.611,-135.511C35.398,-106.562 -33.864,-59.147 -68.736,-42.771C-85.561,-34.87 -141.354,-12.975 -151.934,-30.973C-155.082,-36.328 -150.715,-44.932 -138.157,-56.315C-104.368,-86.942 -25.151,-129.14 -8.611,-135.511" style="fill:rgb(0,206,154);"/>
                </g>
            </g>
        </g>
    </g>
</svg>
